<?xml version="1.0" encoding="utf-8"?>
<!-- Generator: Adobe Illustrator 17.1.0, SVG Export Plug-In . SVG Version: 6.00 Build 0)  -->
<!DOCTYPE svg PUBLIC "-//W3C//DTD SVG 1.1//EN" "http://www.w3.org/Graphics/SVG/1.1/DTD/svg11.dtd">
<svg version="1.1" id="Layer_1" xmlns="http://www.w3.org/2000/svg" xmlns:xlink="http://www.w3.org/1999/xlink" x="0px" y="0px"
	 viewBox="144.4 12.6 511.2 574.8" enable-background="new 144.4 12.6 511.2 574.8" xml:space="preserve">
<g>
	<path opacity="0.8" fill="#FFFFFF" d="M441.8,295.5c74.2-74.2,161.3-107.3,195.1-74.2c33.7,33.1,0,120.8-74.2,195.1
		s-161.3,107.2-195.1,74.2C334.5,456.8,367.6,369.7,441.8,295.5z"/>
	<path opacity="0.9" fill="#FFFFFF" d="M388.8,252C444.1,140.6,529.2,70.5,579.1,94.7c50,25,45.9,135-8.8,246.3
		S430,523.3,379.4,498.3C329.4,474.1,333.5,363.4,388.8,252z"/>
	<path opacity="0.8" fill="#FFFFFF" d="M358.2,295.5c-74.2-74.2-161.3-107.3-195.1-74.2s0,120.8,74.2,195.1s161.3,107.2,195.1,74.2
		C465.5,456.8,432.4,369.7,358.2,295.5z"/>
	<path opacity="0.9" fill="#FFFFFF" d="M411.2,252C355.9,140.6,270.8,70.5,220.9,94.7c-50,25-45.9,135,8.8,246.3
		S370,523.3,420.6,498.3C470.6,474.1,466.5,363.4,411.2,252z"/>
	<circle fill="#FFFFFF" cx="402.6" cy="549.8" r="29.7"/>
	<ellipse fill="#FFFFFF" cx="400" cy="261.9" rx="103.3" ry="241.4"/>
</g>
</svg>
